<svg width="297mm" height="184mm" version="1.1" viewBox="0 0 297 184" xmlns="http://www.w3.org/2000/svg">
 <g transform="matrix(2.5716,0,0,2.5716,-128.56,-260.93)" stroke-width="0">
  <path d="m107.97 102.08 6.7491 11.69h-26.921s4.9566-11.601 12.172-11.618c7.2151-0.0164 7.9999-0.072 7.9999-0.072z" fill="#25c998"/>
  <path d="m87.799 113.77 13.498-9.1e-4 -13.459 23.315s-7.5695-10.093-3.9766-16.35c3.5929-6.2569 3.9371-6.9644 3.9371-6.9644z" fill="#28b3ad"/>
  <path d="m87.839 137.08 6.7428-11.674 13.34 23.345s-12.467 1.4791-16.057-4.7695c-3.5895-6.2486-4.0264-6.9015-4.0264-6.9015z" fill="#2a9ec0"/>
  <path d="m107.92 148.75-6.6947-11.721 26.92 0.12528s-5.0105 11.578-12.226 11.561c-7.2151-0.0175-8.0002 0.0349-8.0002 0.0349z" fill="#2e87d5"/>
  <path d="m128.13 137.21-13.579-0.11015 13.596-23.326s7.5408 10.164 3.9304 16.411c-3.6107 6.2466-3.9469 7.0256-3.9469 7.0256z" fill="#3071e8"/>
  <path d="m128.14 113.77-6.7785 11.668-13.393-23.358s12.897-0.83155 16.132 4.7846c3.6011 6.2522 4.04 6.9053 4.04 6.9053z" fill="#345cfd"/>
 </g>
 <text transform="scale(1.0111 .98902)" x="13.474021" y="174.61261" fill="#25c998" font-family="sans-serif" font-size="44.957px" letter-spacing="1.5875px" stroke-width=".60209" style="line-height:1.25" xml:space="preserve"><tspan x="13.474021" y="174.61261" dx="0" fill="#25c998" font-family="'padmaa-Bold.1.1'" font-size="44.957px" stroke-width=".60209">Murgia</tspan></text>
 <text transform="scale(1.0111 .98902)" x="189.48764" y="175.24405" fill="#25c998" font-family="sans-serif" font-size="44.957px" letter-spacing="2.1167px" stroke-width=".60209" style="line-height:1.25" xml:space="preserve"><tspan x="189.48764" y="175.24405" fill="#25c998" font-family="'padmaa-Bold.1.1'" font-size="44.957px" stroke-width=".60209">Dev</tspan></text>
</svg>
